# xmcd CD database file
#
# Track frame offsets:
#	150
#	16665
#	21580
#	43032
#	47972
#	78972
#	83346
#	112567
#	115971
#	136775
#	140341
#	162736
#	165546
#	192258
#	197308
#	221079
#
# Disc length: 3088 seconds
#
# Revision: 0
# Processed by: cddbd v1.5.1PL0 Copyright (c) Steve Scherf et al.
# Submitted via: CDex 1.51
#
DISCID=c90c0e10
DTITLE=Jan Kisjes - The Nymphs [CD1)
DYEAR=2003
DGENRE=New Age
TTITLE0=Language Of The Nymphs - The Story
TTITLE1=Silence Of The Sun
TTITLE2=Sa Na Du
TTITLE3=The Sea Is Awake
TTITLE4=Waka Zia
TTITLE5=The Wind Is My Friend
TTITLE6=Donde Djemnbe
TTITLE7=After The Rain
TTITLE8=Umna Sa
TTITLE9=Earth, Dear Mother
TTITLE10=Na No Mi Ne
TTITLE11=Dance Of The Flames
TTITLE12=Adjah Bihem
TTITLE13=The Sound Of The Flowers
TTITLE14=Nourih Samah
TTITLE15=Language Of The Nymphs - Epilogue
EXTD=YEAR: 2003
EXTT0=
EXTT1=
EXTT2=
EXTT3=
EXTT4=
EXTT5=
EXTT6=
EXTT7=
EXTT8=
EXTT9=
EXTT10=
EXTT11=
EXTT12=
EXTT13=
EXTT14=
EXTT15=
PLAYORDER=
